<svg width="342" height="37" viewBox="0 0 342 37" fill="none" xmlns="http://www.w3.org/2000/svg">
<path d="M7.41 30L11.46 22.95H11.55L20.34 7.5H27.09L14.16 30H7.41ZM11.37 26.97L0.12 7.5H6.99L15.78 22.8L11.37 26.97ZM27.5595 12.87H46.1595V30H40.0095V14.61L42.8295 17.43H30.6195L33.1995 15.06C33.3195 16.24 33.4095 17.31 33.4695 18.27C33.5295 19.23 33.5595 20.09 33.5595 20.85C33.5595 24.21 33.0395 26.64 31.9995 28.14C30.9795 29.62 29.3195 30.36 27.0195 30.36C26.3395 30.36 25.6995 30.29 25.0995 30.15C24.4995 30.01 23.9095 29.78 23.3295 29.46V25.11C23.6895 25.25 24.0395 25.36 24.3795 25.44C24.7395 25.5 25.0595 25.53 25.3395 25.53C26.3195 25.53 27.0095 25.1 27.4095 24.24C27.8095 23.38 28.0095 21.97 28.0095 20.01C28.0095 19.07 27.9695 18.01 27.8895 16.83C27.8295 15.63 27.7195 14.31 27.5595 12.87ZM49.5218 30V12.87H55.6418V28.5L53.7518 25.71H59.8118C60.5718 25.71 61.1618 25.53 61.5818 25.17C62.0018 24.79 62.2118 24.26 62.2118 23.58C62.2118 22.92 62.0018 22.41 61.5818 22.05C61.1618 21.67 60.5718 21.48 59.8118 21.48H53.7218V17.34H60.8318C62.3518 17.34 63.6718 17.61 64.7918 18.15C65.9118 18.67 66.7818 19.41 67.4018 20.37C68.0418 21.31 68.3618 22.41 68.3618 23.67C68.3618 24.95 68.0418 26.07 67.4018 27.03C66.7818 27.97 65.9118 28.7 64.7918 29.22C63.6918 29.74 62.4018 30 60.9218 30H49.5218ZM90.7477 12.87V30H84.5977V14.64L87.4177 17.43H73.8577L76.6777 14.64V30H70.5277V12.87H90.7477ZM109.592 30L108.812 23.82L109.622 21.45L108.812 19.08L109.592 12.87H115.952L114.872 21.42L115.952 30H109.592ZM111.032 21.45C110.752 23.25 110.192 24.83 109.352 26.19C108.532 27.55 107.482 28.61 106.202 29.37C104.942 30.11 103.502 30.48 101.882 30.48C100.202 30.48 98.7216 30.11 97.4416 29.37C96.1816 28.61 95.1916 27.55 94.4716 26.19C93.7516 24.81 93.3916 23.23 93.3916 21.45C93.3916 19.63 93.7516 18.04 94.4716 16.68C95.1916 15.32 96.1816 14.26 97.4416 13.5C98.7216 12.74 100.202 12.36 101.882 12.36C103.502 12.36 104.942 12.74 106.202 13.5C107.482 14.24 108.542 15.29 109.382 16.65C110.222 17.99 110.772 19.59 111.032 21.45ZM99.6016 21.45C99.6016 22.29 99.7716 23.04 100.112 23.7C100.472 24.36 100.962 24.88 101.582 25.26C102.202 25.62 102.912 25.8 103.712 25.8C104.552 25.8 105.342 25.62 106.082 25.26C106.822 24.88 107.472 24.36 108.032 23.7C108.592 23.04 109.012 22.29 109.292 21.45C109.012 20.59 108.592 19.83 108.032 19.17C107.472 18.51 106.822 17.99 106.082 17.61C105.342 17.23 104.552 17.04 103.712 17.04C102.912 17.04 102.202 17.23 101.582 17.61C100.962 17.99 100.472 18.51 100.112 19.17C99.7716 19.83 99.6016 20.59 99.6016 21.45ZM118.897 12.87H125.017V30H118.897V12.87ZM133.117 12.87H139.237V30H133.117V12.87ZM122.437 18.96H135.427V23.52H122.437V18.96ZM145.418 30.3C144.778 30.3 144.188 30.15 143.648 29.85C143.128 29.55 142.718 29.14 142.418 28.62C142.118 28.08 141.968 27.49 141.968 26.85C141.968 26.21 142.118 25.63 142.418 25.11C142.718 24.59 143.128 24.18 143.648 23.88C144.188 23.56 144.778 23.4 145.418 23.4C146.078 23.4 146.668 23.56 147.188 23.88C147.708 24.18 148.118 24.59 148.418 25.11C148.718 25.63 148.868 26.21 148.868 26.85C148.868 27.49 148.718 28.08 148.418 28.62C148.118 29.14 147.708 29.55 147.188 29.85C146.668 30.15 146.078 30.3 145.418 30.3ZM175.832 7.5V30H169.622V10.2L172.412 13.02H155.432L158.222 10.2V30H152.012V7.5H175.832ZM189.507 30.48C187.307 30.48 185.387 30.11 183.747 29.37C182.107 28.61 180.827 27.55 179.907 26.19C178.987 24.81 178.527 23.23 178.527 21.45C178.527 19.63 178.987 18.04 179.907 16.68C180.827 15.32 182.107 14.26 183.747 13.5C185.387 12.74 187.307 12.36 189.507 12.36C191.687 12.36 193.597 12.74 195.237 13.5C196.897 14.26 198.187 15.32 199.107 16.68C200.027 18.04 200.487 19.63 200.487 21.45C200.487 23.23 200.027 24.81 199.107 26.19C198.187 27.55 196.897 28.61 195.237 29.37C193.597 30.11 191.687 30.48 189.507 30.48ZM189.507 25.95C190.507 25.95 191.357 25.77 192.057 25.41C192.777 25.05 193.327 24.53 193.707 23.85C194.087 23.17 194.277 22.37 194.277 21.45C194.277 20.49 194.087 19.68 193.707 19.02C193.327 18.34 192.777 17.82 192.057 17.46C191.357 17.1 190.507 16.92 189.507 16.92C188.507 16.92 187.647 17.1 186.927 17.46C186.207 17.82 185.657 18.34 185.277 19.02C184.897 19.68 184.707 20.48 184.707 21.42C184.707 22.36 184.897 23.17 185.277 23.85C185.657 24.53 186.207 25.05 186.927 25.41C187.647 25.77 188.507 25.95 189.507 25.95ZM205.597 12.87H224.197V30H218.047V14.61L220.867 17.43H208.657L211.237 15.06C211.357 16.24 211.447 17.31 211.507 18.27C211.567 19.23 211.597 20.09 211.597 20.85C211.597 24.21 211.077 26.64 210.037 28.14C209.017 29.62 207.357 30.36 205.057 30.36C204.377 30.36 203.737 30.29 203.137 30.15C202.537 30.01 201.947 29.78 201.367 29.46V25.11C201.727 25.25 202.077 25.36 202.417 25.44C202.777 25.5 203.097 25.53 203.377 25.53C204.357 25.53 205.047 25.1 205.447 24.24C205.847 23.38 206.047 21.97 206.047 20.01C206.047 19.07 206.007 18.01 205.927 16.83C205.867 15.63 205.757 14.31 205.597 12.87ZM227.559 30V12.87H233.619V26.67L232.299 26.25L241.269 12.87H249.129V30H243.099V15.81L244.419 16.26L235.209 30H227.559ZM257.77 14.97H263.92V30H257.77V14.97ZM251.26 12.87H270.43V17.49H251.26V12.87ZM272.53 30V12.87H278.59V26.67L277.27 26.25L286.24 12.87H294.1V30H288.07V15.81L289.39 16.26L280.18 30H272.53ZM297.491 30V12.87H303.641V25.23L301.841 24.6L311.381 12.87H317.861L302.951 30H297.491ZM311.441 30L306.551 21.63L311.171 18.39L318.341 30H311.441ZM334.328 30L333.548 23.82L334.358 21.45L333.548 19.08L334.328 12.87H340.688L339.608 21.42L340.688 30H334.328ZM335.768 21.45C335.488 23.25 334.928 24.83 334.088 26.19C333.268 27.55 332.218 28.61 330.938 29.37C329.678 30.11 328.238 30.48 326.618 30.48C324.938 30.48 323.458 30.11 322.178 29.37C320.918 28.61 319.928 27.55 319.208 26.19C318.488 24.81 318.128 23.23 318.128 21.45C318.128 19.63 318.488 18.04 319.208 16.68C319.928 15.32 320.918 14.26 322.178 13.5C323.458 12.74 324.938 12.36 326.618 12.36C328.238 12.36 329.678 12.74 330.938 13.5C332.218 14.24 333.278 15.29 334.118 16.65C334.958 17.99 335.508 19.59 335.768 21.45ZM324.338 21.45C324.338 22.29 324.508 23.04 324.848 23.7C325.208 24.36 325.698 24.88 326.318 25.26C326.938 25.62 327.648 25.8 328.448 25.8C329.288 25.8 330.078 25.62 330.818 25.26C331.558 24.88 332.208 24.36 332.768 23.7C333.328 23.04 333.748 22.29 334.028 21.45C333.748 20.59 333.328 19.83 332.768 19.17C332.208 18.51 331.558 17.99 330.818 17.61C330.078 17.23 329.288 17.04 328.448 17.04C327.648 17.04 326.938 17.23 326.318 17.61C325.698 17.99 325.208 18.51 324.848 19.17C324.508 19.83 324.338 20.59 324.338 21.45Z" fill="white"/>
</svg>
