<svg width="278" height="78" viewBox="0 0 278 78" fill="none" xmlns="http://www.w3.org/2000/svg">
<path d="M92.4336 19.8722V0.636731H105.898V3.52206H95.4563V9.01792H103.7V11.9032H95.4563V19.8722H92.4336Z" fill="#FBFBFB"/>
<path d="M109.608 19.8722V0.636731H117.577C119.409 0.636731 120.92 1.2138 122.111 2.36793C123.302 3.52206 123.897 4.96014 123.897 6.68218C123.897 8.42254 123.284 9.86978 122.056 11.0239C121.507 11.5185 120.893 11.9032 120.215 12.178L124.584 19.8722H121.149L117.165 12.7276H112.631V19.8722H109.608ZM112.631 9.9797H117.577C118.548 9.9797 119.336 9.67743 119.94 9.07288C120.563 8.45002 120.875 7.65311 120.875 6.68218C120.875 5.71124 120.563 4.9235 119.94 4.31896C119.336 3.69609 118.548 3.38466 117.577 3.38466H112.631V9.9797Z" fill="#FBFBFB"/>
<path d="M128.581 19.8722V0.636731H142.183V3.52206H131.603V8.46833H139.985V11.3537H131.603V16.9869H142.458V19.8722H128.581Z" fill="#FBFBFB"/>
<path d="M146.453 19.8722V0.636731H160.055V3.52206H149.476V8.46833H157.857V11.3537H149.476V16.9869H160.33V19.8722H146.453Z" fill="#FBFBFB"/>
<path d="M92.4336 47.9243V28.6888H100.403C102.235 28.6888 103.746 29.2659 104.937 30.42C106.127 31.5741 106.723 33.0122 106.723 34.7342C106.723 36.4746 106.109 37.9218 104.882 39.076C104.332 39.5706 103.718 39.9553 103.041 40.2301L107.41 47.9243H103.975L99.9904 40.7797H95.4563V47.9243H92.4336ZM95.4563 38.0318H100.403C101.374 38.0318 102.161 37.7295 102.766 37.1249C103.389 36.5021 103.7 35.7052 103.7 34.7342C103.7 33.7633 103.389 32.9756 102.766 32.371C102.161 31.7482 101.374 31.4367 100.403 31.4367H95.4563V38.0318Z" fill="#FBFBFB"/>
<path d="M111.131 40.2301V28.6888H114.154V40.2301C114.154 41.7323 114.64 42.978 115.61 43.9673C116.581 44.9565 117.79 45.4512 119.238 45.4512C120.612 45.4512 121.802 44.9382 122.81 43.9123C123.818 42.8864 124.321 41.659 124.321 40.2301V28.6888H127.344V40.2301C127.344 42.575 126.593 44.4894 125.091 45.9733C123.589 47.4572 121.638 48.1991 119.238 48.1991C116.838 48.1991 114.887 47.4572 113.385 45.9733C111.882 44.4894 111.131 42.575 111.131 40.2301Z" fill="#FBFBFB"/>
<path d="M130.629 45.3138L132.69 43.2528C132.983 43.6375 133.368 44.0039 133.844 44.352C134.906 45.0848 136.125 45.4512 137.499 45.4512C138.689 45.4512 139.624 45.1764 140.301 44.6268C140.998 44.0589 141.346 43.3719 141.346 42.5658C141.346 41.9063 141.089 41.3659 140.576 40.9446C140.082 40.5049 139.459 40.1843 138.708 39.9828C137.957 39.7813 137.141 39.534 136.262 39.2408C135.383 38.9477 134.567 38.6271 133.816 38.2791C133.065 37.931 132.433 37.3723 131.92 36.6028C131.426 35.8334 131.178 34.89 131.178 33.7725C131.178 32.2703 131.783 31.0062 132.992 29.9803C134.201 28.9361 135.795 28.414 137.773 28.414C139.459 28.414 140.961 28.8262 142.28 29.6506C142.903 30.017 143.416 30.4291 143.819 30.8871L141.758 32.9481C141.428 32.5817 141.089 32.2886 140.741 32.0687C139.825 31.4642 138.836 31.1619 137.773 31.1619C136.656 31.1619 135.777 31.4184 135.135 31.9314C134.513 32.426 134.201 33.0397 134.201 33.7725C134.201 34.432 134.448 34.9816 134.943 35.4212C135.456 35.8426 136.088 36.154 136.839 36.3555C137.59 36.557 138.405 36.8043 139.285 37.0975C140.164 37.3906 140.979 37.7112 141.73 38.0592C142.482 38.4073 143.104 38.9661 143.599 39.7355C144.112 40.5049 144.368 41.4483 144.368 42.5658C144.368 44.1413 143.736 45.4786 142.472 46.5778C141.227 47.6587 139.569 48.1991 137.499 48.1991C135.483 48.1991 133.752 47.7228 132.305 46.7702C131.682 46.3855 131.123 45.9 130.629 45.3138Z" fill="#FBFBFB"/>
<path d="M146.301 45.3138L148.362 43.2528C148.655 43.6375 149.039 44.0039 149.516 44.352C150.578 45.0848 151.796 45.4512 153.17 45.4512C154.361 45.4512 155.295 45.1764 155.973 44.6268C156.669 44.0589 157.017 43.3719 157.017 42.5658C157.017 41.9063 156.761 41.3659 156.248 40.9446C155.753 40.5049 155.131 40.1843 154.379 39.9828C153.628 39.7813 152.813 39.534 151.934 39.2408C151.054 38.9477 150.239 38.6271 149.488 38.2791C148.737 37.931 148.105 37.3723 147.592 36.6028C147.097 35.8334 146.85 34.89 146.85 33.7725C146.85 32.2703 147.455 31.0062 148.664 29.9803C149.873 28.9361 151.467 28.414 153.445 28.414C155.131 28.414 156.633 28.8262 157.952 29.6506C158.575 30.017 159.088 30.4291 159.491 30.8871L157.43 32.9481C157.1 32.5817 156.761 32.2886 156.413 32.0687C155.497 31.4642 154.508 31.1619 153.445 31.1619C152.328 31.1619 151.448 31.4184 150.807 31.9314C150.184 32.426 149.873 33.0397 149.873 33.7725C149.873 34.432 150.12 34.9816 150.615 35.4212C151.128 35.8426 151.76 36.154 152.511 36.3555C153.262 36.557 154.077 36.8043 154.957 37.0975C155.836 37.3906 156.651 37.7112 157.402 38.0592C158.153 38.4073 158.776 38.9661 159.271 39.7355C159.784 40.5049 160.04 41.4483 160.04 42.5658C160.04 44.1413 159.408 45.4786 158.144 46.5778C156.898 47.6587 155.24 48.1991 153.17 48.1991C151.155 48.1991 149.424 47.7228 147.977 46.7702C147.354 46.3855 146.795 45.9 146.301 45.3138Z" fill="#FBFBFB"/>
<path d="M163.896 47.9243V28.6888H166.919V47.9243H163.896Z" fill="#FBFBFB"/>
<path d="M169.93 47.9243L177.624 28.6888H180.921L188.615 47.9243H185.455L183.532 42.978H175.013L173.09 47.9243H169.93ZM176.112 40.2301H182.433L179.273 32.2611L176.112 40.2301Z" fill="#FBFBFB"/>
<path d="M92.4336 75.7281V56.4926H105.898V59.3779H95.4563V64.8738H103.7V67.7591H95.4563V75.7281H92.4336Z" fill="#FBFBFB"/>
<path d="M112.919 61.0542C111.545 62.4281 110.858 64.1135 110.858 66.1104C110.858 68.1072 111.545 69.8017 112.919 71.194C114.311 72.568 116.005 73.255 118.002 73.255C119.999 73.255 121.684 72.568 123.058 71.194C124.451 69.8017 125.147 68.1072 125.147 66.1104C125.147 64.1135 124.451 62.4281 123.058 61.0542C121.684 59.6619 119.999 58.9657 118.002 58.9657C116.005 58.9657 114.311 59.6619 112.919 61.0542ZM110.748 73.1451C108.806 71.2215 107.835 68.8766 107.835 66.1104C107.835 63.3441 108.806 61.0084 110.748 59.1031C112.708 57.1796 115.126 56.2178 118.002 56.2178C120.878 56.2178 123.287 57.1796 125.229 59.1031C127.189 61.0084 128.17 63.3441 128.17 66.1104C128.17 68.8766 127.189 71.2215 125.229 73.1451C123.287 75.0503 120.878 76.0029 118.002 76.0029C115.126 76.0029 112.708 75.0503 110.748 73.1451Z" fill="#FBFBFB"/>
<path d="M132.143 68.0339V56.4926H135.166V68.0339C135.166 69.5361 135.652 70.7818 136.622 71.7711C137.593 72.7603 138.802 73.255 140.25 73.255C141.624 73.255 142.814 72.742 143.822 71.7161C144.83 70.6903 145.333 69.4628 145.333 68.0339V56.4926H148.356V68.0339C148.356 70.3788 147.605 72.2932 146.103 73.7771C144.601 75.261 142.65 76.0029 140.25 76.0029C137.85 76.0029 135.899 75.261 134.397 73.7771C132.894 72.2932 132.143 70.3788 132.143 68.0339Z" fill="#FBFBFB"/>
<path d="M153.564 75.7281V56.4926H156.312L166.892 70.6445V56.4926H169.915V75.7281H167.167L156.587 61.5763V75.7281H153.564Z" fill="#FBFBFB"/>
<path d="M175.408 75.7281V56.4926H181.866C184.65 56.4926 187.014 57.4452 188.956 59.3505C190.916 61.2374 191.896 63.4907 191.896 66.1104C191.896 68.7301 190.916 70.9925 188.956 72.8977C187.014 74.7847 184.65 75.7281 181.866 75.7281H175.408ZM178.431 72.9802H181.866C183.844 72.9802 185.502 72.3207 186.84 71.0017C188.195 69.6644 188.873 68.0339 188.873 66.1104C188.873 64.1868 188.195 62.5655 186.84 61.2465C185.502 59.9092 183.844 59.2405 181.866 59.2405H178.431V72.9802Z" fill="#FBFBFB"/>
<path d="M193.142 75.7281L200.836 56.4926H204.134L211.828 75.7281H208.668L206.744 70.7818H198.226L196.302 75.7281H193.142ZM199.325 68.0339H205.645L202.485 60.0649L199.325 68.0339Z" fill="#FBFBFB"/>
<path d="M216.791 75.7281V59.3779H211.021V56.4926H225.585V59.3779H219.814V75.7281H216.791Z" fill="#FBFBFB"/>
<path d="M228.891 75.7281V56.4926H231.914V75.7281H228.891Z" fill="#FBFBFB"/>
<path d="M241.245 61.0542C239.871 62.4281 239.184 64.1135 239.184 66.1104C239.184 68.1072 239.871 69.8017 241.245 71.194C242.637 72.568 244.332 73.255 246.328 73.255C248.325 73.255 250.011 72.568 251.385 71.194C252.777 69.8017 253.473 68.1072 253.473 66.1104C253.473 64.1135 252.777 62.4281 251.385 61.0542C250.011 59.6619 248.325 58.9657 246.328 58.9657C244.332 58.9657 242.637 59.6619 241.245 61.0542ZM239.074 73.1451C237.132 71.2215 236.161 68.8766 236.161 66.1104C236.161 63.3441 237.132 61.0084 239.074 59.1031C241.034 57.1796 243.452 56.2178 246.328 56.2178C249.205 56.2178 251.614 57.1796 253.556 59.1031C255.516 61.0084 256.496 63.3441 256.496 66.1104C256.496 68.8766 255.516 71.2215 253.556 73.1451C251.614 75.0503 249.205 76.0029 246.328 76.0029C243.452 76.0029 241.034 75.0503 239.074 73.1451Z" fill="#FBFBFB"/>
<path d="M260.744 75.7281V56.4926H263.492L274.072 70.6445V56.4926H277.095V75.7281H274.347L263.767 61.5763V75.7281H260.744Z" fill="#FBFBFB"/>
<path d="M19.5002 1.21121e-05H0V19.5002H19.5002V1.21121e-05Z" fill="#EAEEF4"/>
<path d="M39.0001 1.21121e-05H19.5002V19.5002H39.0001V1.21121e-05Z" fill="#E2E7EF"/>
<path d="M58.5006 1.21121e-05H39.0001V19.5002H58.5006V1.21121e-05Z" fill="#BFCBD9"/>
<path d="M39.0001 19.5002H19.5002L19.4999 39.0001H39.0001V19.5002Z" fill="white"/>
<path d="M39.0001 39.0001H19.4999V58.5001H39.0001V39.0001Z" fill="#E9EDF3"/>
<path d="M58.5006 19.5002H39.0001V39.0001H58.5006V19.5002Z" fill="#E9EDF3"/>
<path d="M78.0005 1.21121e-05H58.5006V19.5002H78.0005V1.21121e-05Z" fill="#9DABBB"/>
<path d="M19.4999 39.0001L0 38.9999V58.5001H19.4999V39.0001Z" fill="#BFCBD9"/>
<path d="M19.5002 19.5002H0V38.9999L19.4999 39.0001L19.5002 19.5002Z" fill="#E2E7EF"/>
<path d="M19.4999 58.5001H0V78H19.5002L19.4999 58.5001Z" fill="#9DABBB"/>
</svg>
