<svg width="1646" height="465" viewBox="0 0 1646 465" fill="none" xmlns="http://www.w3.org/2000/svg">
<mask id="path-1-outside-1_202_92" maskUnits="userSpaceOnUse" x="0" y="0" width="1646" height="465" fill="black">
<rect fill="white" width="1646" height="465"/>
<path d="M229.952 2.30664H115.976V116.283H229.952V2.30664Z"/>
<path d="M229.952 116.282H115.976V230.259H229.952V116.282Z"/>
<path d="M343.928 116.282H229.951V230.259H343.928V116.282Z"/>
<path d="M229.952 230.262H115.976V344.239H229.952V230.262Z"/>
<path d="M115.977 2.30664H2V116.283H115.977V2.30664Z"/>
<path d="M343.928 2.30664H229.951V116.283H343.928V2.30664Z"/>
<path d="M115.977 116.282H2V230.259H115.977V116.282Z"/>
<path d="M115.977 230.262H2V344.239H115.977V230.262Z"/>
<path d="M115.977 344.237H2V458.214H115.977V344.237Z"/>
<path d="M457.907 2.30664H343.93V116.283H457.907V2.30664Z"/>
<path d="M539.861 122.671V2H618.922V15.3878H554.877V54.2846H617.655V67.6724H554.877V122.671H539.861Z"/>
<path d="M709.163 122.671L678.407 74.7281H654.346V122.671H639.33V2H687.815C693.363 2 698.429 2.84427 703.012 4.53282C707.595 6.22137 711.575 8.69388 714.952 11.9504C718.329 15.0862 720.923 18.8855 722.732 23.3481C724.662 27.8106 725.626 32.816 725.626 38.3641C725.626 43.7915 724.782 48.6159 723.094 52.8373C721.405 57.0587 719.113 60.6167 716.219 63.5113C713.324 66.406 709.947 68.6976 706.088 70.3861C702.349 72.0747 698.429 73.0999 694.328 73.4617L726.893 122.671H709.163ZM686.006 61.5213C693.243 61.5213 699.032 59.4106 703.374 55.1892C707.836 50.8472 710.068 45.2389 710.068 38.3641C710.068 31.4893 707.836 25.9412 703.374 21.7198C699.032 17.4984 693.243 15.3878 686.006 15.3878H654.346V61.5213H686.006Z"/>
<path d="M749.398 122.671V2H828.459V15.3878H764.414V54.2846H827.192V67.6724H764.414V109.283H828.459V122.671H749.398Z"/>
<path d="M852.4 122.671V2H931.46V15.3878H867.416V54.2846H930.194V67.6724H867.416V109.283H931.46V122.671H852.4Z"/>
<path d="M609.695 288.671L578.939 240.728H554.877V288.671H539.861V168H588.347C593.895 168 598.96 168.844 603.544 170.533C608.127 172.221 612.107 174.694 615.484 177.95C618.861 181.086 621.454 184.885 623.263 189.348C625.193 193.811 626.158 198.816 626.158 204.364C626.158 209.792 625.314 214.616 623.625 218.837C621.937 223.059 619.645 226.617 616.75 229.511C613.856 232.406 610.479 234.698 606.619 236.386C602.88 238.075 598.96 239.1 594.86 239.462L627.425 288.671H609.695ZM586.538 227.521C593.774 227.521 599.564 225.411 603.906 221.189C608.368 216.847 610.599 211.239 610.599 204.364C610.599 197.489 608.368 191.941 603.906 187.72C599.564 183.498 593.774 181.388 586.538 181.388H554.877V227.521H586.538Z"/>
<path d="M699.139 290.842C690.938 290.842 683.761 289.696 677.61 287.404C671.459 284.992 666.333 281.675 662.232 277.454C658.132 273.233 655.056 268.107 653.006 262.076C650.955 256.046 649.93 249.291 649.93 241.814V168H664.946V241.452C664.946 252.548 667.841 261.353 673.63 267.865C679.419 274.258 687.922 277.454 699.139 277.454C710.356 277.454 718.859 274.258 724.648 267.865C730.438 261.353 733.332 252.548 733.332 241.452V168H748.348V241.633C748.348 249.111 747.323 255.925 745.273 262.076C743.222 268.107 740.147 273.293 736.046 277.635C731.945 281.856 726.819 285.113 720.668 287.404C714.517 289.696 707.341 290.842 699.139 290.842Z"/>
<path d="M815.684 290.842C805.071 290.842 795.964 289.093 788.366 285.595C780.768 281.977 774.436 277.333 769.37 271.665L778.235 260.267C780.165 262.438 782.456 264.609 785.11 266.78C787.763 268.83 790.658 270.64 793.793 272.207C797.05 273.775 800.548 275.042 804.287 276.007C808.026 276.972 812.006 277.454 816.227 277.454C821.655 277.454 826.177 276.791 829.796 275.464C833.414 274.137 836.309 272.509 838.48 270.579C840.651 268.529 842.219 266.298 843.183 263.885C844.148 261.352 844.631 258.94 844.631 256.649C844.631 252.789 843.606 249.593 841.555 247.06C839.505 244.527 836.791 242.417 833.414 240.728C830.158 238.919 826.358 237.472 822.016 236.386C817.795 235.18 813.393 233.974 808.81 232.768C804.347 231.441 799.945 229.994 795.603 228.426C791.381 226.858 787.582 224.868 784.205 222.456C780.948 219.923 778.295 216.847 776.245 213.229C774.194 209.611 773.169 205.088 773.169 199.66C773.169 194.715 774.194 190.192 776.245 186.092C778.416 181.991 781.31 178.493 784.929 175.598C788.668 172.583 793.07 170.292 798.135 168.724C803.201 167.035 808.689 166.191 814.599 166.191C823.886 166.191 832.087 167.638 839.203 170.533C846.319 173.427 852.41 177.589 857.476 183.016L848.43 194.052C843.847 188.986 838.54 185.308 832.509 183.016C826.479 180.724 820.147 179.579 813.513 179.579C806.277 179.579 800.306 181.327 795.603 184.825C791.019 188.323 788.728 192.966 788.728 198.756C788.728 202.133 789.753 204.907 791.803 207.078C793.854 209.249 796.507 211.118 799.764 212.686C803.141 214.254 806.94 215.641 811.161 216.847C815.503 217.933 819.906 219.139 824.368 220.466C828.951 221.672 833.354 223.119 837.575 224.808C841.917 226.496 845.716 228.667 848.973 231.32C852.35 233.974 855.064 237.23 857.114 241.09C859.164 244.949 860.19 249.714 860.19 255.382C860.19 259.724 859.406 264.066 857.838 268.408C856.27 272.63 853.677 276.429 850.058 279.806C846.561 283.062 841.977 285.716 836.309 287.766C830.64 289.817 823.765 290.842 815.684 290.842Z"/>
<path d="M921.69 290.842C911.076 290.842 901.97 289.093 894.371 285.595C886.773 281.977 880.441 277.333 875.375 271.665L884.24 260.267C886.17 262.438 888.461 264.609 891.115 266.78C893.768 268.83 896.663 270.64 899.799 272.207C903.055 273.775 906.553 275.042 910.292 276.007C914.031 276.972 918.011 277.454 922.232 277.454C927.66 277.454 932.183 276.791 935.801 275.464C939.419 274.137 942.314 272.509 944.485 270.579C946.656 268.529 948.224 266.298 949.189 263.885C950.154 261.352 950.636 258.94 950.636 256.649C950.636 252.789 949.611 249.593 947.56 247.06C945.51 244.527 942.796 242.417 939.419 240.728C936.163 238.919 932.364 237.472 928.022 236.386C923.8 235.18 919.398 233.974 914.815 232.768C910.352 231.441 905.95 229.994 901.608 228.426C897.387 226.858 893.587 224.868 890.21 222.456C886.954 219.923 884.3 216.847 882.25 213.229C880.2 209.611 879.174 205.088 879.174 199.66C879.174 194.715 880.2 190.192 882.25 186.092C884.421 181.991 887.316 178.493 890.934 175.598C894.673 172.583 899.075 170.292 904.141 168.724C909.206 167.035 914.694 166.191 920.604 166.191C929.891 166.191 938.093 167.638 945.209 170.533C952.325 173.427 958.415 177.589 963.481 183.016L954.435 194.052C949.852 188.986 944.545 185.308 938.515 183.016C932.484 180.724 926.152 179.579 919.519 179.579C912.282 179.579 906.312 181.327 901.608 184.825C897.025 188.323 894.733 192.966 894.733 198.756C894.733 202.133 895.758 204.907 897.809 207.078C899.859 209.249 902.512 211.118 905.769 212.686C909.146 214.254 912.945 215.641 917.167 216.847C921.509 217.933 925.911 219.139 930.374 220.466C934.957 221.672 939.359 223.119 943.58 224.808C947.922 226.496 951.722 228.667 954.978 231.32C958.355 233.974 961.069 237.23 963.119 241.09C965.17 244.949 966.195 249.714 966.195 255.382C966.195 259.724 965.411 264.066 963.843 268.408C962.275 272.63 959.682 276.429 956.064 279.806C952.566 283.062 947.983 285.716 942.314 287.766C936.645 289.817 929.77 290.842 921.69 290.842Z"/>
<path d="M988.617 288.671V168H1003.63V288.671H988.617Z"/>
<path d="M1118.02 288.671L1107.34 261.895H1047.28L1036.61 288.671H1019.42L1067.9 168H1086.54L1135.21 288.671H1118.02ZM1077.31 183.559L1051.62 248.507H1102.82L1077.31 183.559Z"/>
<path d="M539.861 460.671V340H618.922V353.388H554.877V392.285H617.655V405.672H554.877V460.671H539.861Z"/>
<path d="M694.328 462.842C685.403 462.842 677.262 461.274 669.904 458.138C662.547 455.002 656.215 450.66 650.908 445.112C645.722 439.443 641.682 432.81 638.787 425.211C635.892 417.613 634.445 409.351 634.445 400.426C634.445 391.501 635.892 383.239 638.787 375.64C641.682 368.042 645.722 361.469 650.908 355.921C656.215 350.252 662.547 345.85 669.904 342.714C677.262 339.578 685.403 338.01 694.328 338.01C703.253 338.01 711.394 339.578 718.752 342.714C726.109 345.85 732.381 350.252 737.567 355.921C742.874 361.469 746.974 368.042 749.869 375.64C752.764 383.239 754.211 391.501 754.211 400.426C754.211 409.351 752.764 417.613 749.869 425.211C746.974 432.81 742.874 439.443 737.567 445.112C732.381 450.66 726.109 455.002 718.752 458.138C711.394 461.274 703.253 462.842 694.328 462.842ZM694.328 449.454C701.082 449.454 707.173 448.248 712.6 445.836C718.028 443.303 722.671 439.865 726.531 435.523C730.391 431.061 733.345 425.875 735.396 419.965C737.567 413.934 738.652 407.421 738.652 400.426C738.652 393.43 737.567 386.917 735.396 380.887C733.345 374.856 730.391 369.67 726.531 365.328C722.671 360.986 718.028 357.609 712.6 355.197C707.173 352.664 701.082 351.398 694.328 351.398C687.574 351.398 681.423 352.664 675.875 355.197C670.447 357.609 665.804 360.986 661.944 365.328C658.085 369.67 655.13 374.856 653.079 380.887C651.029 386.917 650.004 393.43 650.004 400.426C650.004 407.421 651.029 413.934 653.079 419.965C655.13 425.875 658.085 431.061 661.944 435.523C665.804 439.865 670.447 443.303 675.875 445.836C681.423 448.248 687.574 449.454 694.328 449.454Z"/>
<path d="M826.876 462.842C818.674 462.842 811.498 461.696 805.347 459.404C799.196 456.992 794.07 453.675 789.969 449.454C785.868 445.233 782.793 440.107 780.742 434.076C778.692 428.046 777.667 421.291 777.667 413.814V340H792.683V413.452C792.683 424.548 795.577 433.353 801.367 439.865C807.156 446.258 815.659 449.454 826.876 449.454C838.092 449.454 846.595 446.258 852.385 439.865C858.174 433.353 861.069 424.548 861.069 413.452V340H876.085V413.633C876.085 421.111 875.059 427.925 873.009 434.076C870.959 440.107 867.883 445.293 863.782 449.635C859.682 453.856 854.556 457.113 848.405 459.404C842.253 461.696 835.077 462.842 826.876 462.842Z"/>
<path d="M989.735 460.671L919.359 364.424V460.671H904.343V340H919.721L989.192 434.257V340H1004.21V460.671H989.735Z"/>
<path d="M1032.43 460.671V340H1073.68C1083.09 340 1091.59 341.568 1099.19 344.704C1106.79 347.719 1113.24 351.94 1118.55 357.368C1123.98 362.795 1128.14 369.188 1131.03 376.545C1134.05 383.902 1135.55 391.862 1135.55 400.426C1135.55 408.989 1134.05 416.949 1131.03 424.307C1128.14 431.664 1123.98 438.056 1118.55 443.484C1113.24 448.791 1106.79 453.012 1099.19 456.148C1091.59 459.163 1083.09 460.671 1073.68 460.671H1032.43ZM1073.68 447.283C1081.04 447.283 1087.55 446.077 1093.22 443.665C1099.01 441.132 1103.89 437.755 1107.87 433.533C1111.85 429.312 1114.87 424.367 1116.92 418.698C1118.97 413.03 1120 406.939 1120 400.426C1120 393.913 1118.97 387.822 1116.92 382.153C1114.87 376.364 1111.85 371.359 1107.87 367.137C1104.01 362.916 1099.19 359.599 1093.4 357.187C1087.73 354.654 1081.16 353.388 1073.68 353.388H1047.45V447.283H1073.68Z"/>
<path d="M1238.51 460.671L1227.84 433.895H1167.77L1157.1 460.671H1139.91L1188.4 340H1207.03L1255.7 460.671H1238.51ZM1197.81 355.559L1172.11 420.507H1223.31L1197.81 355.559Z"/>
<path d="M1289.14 460.671V353.388H1250.96V340H1342.51V353.388H1304.15V460.671H1289.14Z"/>
<path d="M1362.46 460.671V340H1377.48V460.671H1362.46Z"/>
<path d="M1460.75 462.842C1451.82 462.842 1443.68 461.274 1436.32 458.138C1428.97 455.002 1422.63 450.66 1417.33 445.112C1412.14 439.443 1408.1 432.81 1405.21 425.211C1402.31 417.613 1400.86 409.351 1400.86 400.426C1400.86 391.501 1402.31 383.239 1405.21 375.64C1408.1 368.042 1412.14 361.469 1417.33 355.921C1422.63 350.252 1428.97 345.85 1436.32 342.714C1443.68 339.578 1451.82 338.01 1460.75 338.01C1469.67 338.01 1477.81 339.578 1485.17 342.714C1492.53 345.85 1498.8 350.252 1503.99 355.921C1509.29 361.469 1513.39 368.042 1516.29 375.64C1519.18 383.239 1520.63 391.501 1520.63 400.426C1520.63 409.351 1519.18 417.613 1516.29 425.211C1513.39 432.81 1509.29 439.443 1503.99 445.112C1498.8 450.66 1492.53 455.002 1485.17 458.138C1477.81 461.274 1469.67 462.842 1460.75 462.842ZM1460.75 449.454C1467.5 449.454 1473.59 448.248 1479.02 445.836C1484.45 443.303 1489.09 439.865 1492.95 435.523C1496.81 431.061 1499.76 425.875 1501.81 419.965C1503.99 413.934 1505.07 407.421 1505.07 400.426C1505.07 393.43 1503.99 386.917 1501.81 380.887C1499.76 374.856 1496.81 369.67 1492.95 365.328C1489.09 360.986 1484.45 357.609 1479.02 355.197C1473.59 352.664 1467.5 351.398 1460.75 351.398C1453.99 351.398 1447.84 352.664 1442.29 355.197C1436.87 357.609 1432.22 360.986 1428.36 365.328C1424.5 369.67 1421.55 374.856 1419.5 380.887C1417.45 386.917 1416.42 393.43 1416.42 400.426C1416.42 407.421 1417.45 413.934 1419.5 419.965C1421.55 425.875 1424.5 431.061 1428.36 435.523C1432.22 439.865 1436.87 443.303 1442.29 445.836C1447.84 448.248 1453.99 449.454 1460.75 449.454Z"/>
<path d="M1629.48 460.671L1559.1 364.424V460.671H1544.08V340H1559.46L1628.93 434.257V340H1643.95V460.671H1629.48Z"/>
</mask>
<path d="M229.952 2.30664H115.976V116.283H229.952V2.30664Z" fill="#0088CD"/>
<path d="M229.952 116.282H115.976V230.259H229.952V116.282Z" fill="#C8032D"/>
<path d="M343.928 116.282H229.951V230.259H343.928V116.282Z" fill="#940321"/>
<path d="M229.952 230.262H115.976V344.239H229.952V230.262Z" fill="#940321"/>
<path d="M115.977 2.30664H2V116.283H115.977V2.30664Z" fill="#3AA9E0"/>
<path d="M343.928 2.30664H229.951V116.283H343.928V2.30664Z" fill="#0063AE"/>
<path d="M115.977 116.282H2V230.259H115.977V116.282Z" fill="#0088CD"/>
<path d="M115.977 230.262H2V344.239H115.977V230.262Z" fill="#0063AE"/>
<path d="M115.977 344.237H2V458.214H115.977V344.237Z" fill="#3C3C6F"/>
<path d="M457.907 2.30664H343.93V116.283H457.907V2.30664Z" fill="#3C3C6F"/>
<path d="M539.861 122.671V2H618.922V15.3878H554.877V54.2846H617.655V67.6724H554.877V122.671H539.861Z" fill="#1D1B1B"/>
<path d="M709.163 122.671L678.407 74.7281H654.346V122.671H639.33V2H687.815C693.363 2 698.429 2.84427 703.012 4.53282C707.595 6.22137 711.575 8.69388 714.952 11.9504C718.329 15.0862 720.923 18.8855 722.732 23.3481C724.662 27.8106 725.626 32.816 725.626 38.3641C725.626 43.7915 724.782 48.6159 723.094 52.8373C721.405 57.0587 719.113 60.6167 716.219 63.5113C713.324 66.406 709.947 68.6976 706.088 70.3861C702.349 72.0747 698.429 73.0999 694.328 73.4617L726.893 122.671H709.163ZM686.006 61.5213C693.243 61.5213 699.032 59.4106 703.374 55.1892C707.836 50.8472 710.068 45.2389 710.068 38.3641C710.068 31.4893 707.836 25.9412 703.374 21.7198C699.032 17.4984 693.243 15.3878 686.006 15.3878H654.346V61.5213H686.006Z" fill="#1D1B1B"/>
<path d="M749.398 122.671V2H828.459V15.3878H764.414V54.2846H827.192V67.6724H764.414V109.283H828.459V122.671H749.398Z" fill="#1D1B1B"/>
<path d="M852.4 122.671V2H931.46V15.3878H867.416V54.2846H930.194V67.6724H867.416V109.283H931.46V122.671H852.4Z" fill="#1D1B1B"/>
<path d="M609.695 288.671L578.939 240.728H554.877V288.671H539.861V168H588.347C593.895 168 598.96 168.844 603.544 170.533C608.127 172.221 612.107 174.694 615.484 177.95C618.861 181.086 621.454 184.885 623.263 189.348C625.193 193.811 626.158 198.816 626.158 204.364C626.158 209.792 625.314 214.616 623.625 218.837C621.937 223.059 619.645 226.617 616.75 229.511C613.856 232.406 610.479 234.698 606.619 236.386C602.88 238.075 598.96 239.1 594.86 239.462L627.425 288.671H609.695ZM586.538 227.521C593.774 227.521 599.564 225.411 603.906 221.189C608.368 216.847 610.599 211.239 610.599 204.364C610.599 197.489 608.368 191.941 603.906 187.72C599.564 183.498 593.774 181.388 586.538 181.388H554.877V227.521H586.538Z" fill="#1D1B1B"/>
<path d="M699.139 290.842C690.938 290.842 683.761 289.696 677.61 287.404C671.459 284.992 666.333 281.675 662.232 277.454C658.132 273.233 655.056 268.107 653.006 262.076C650.955 256.046 649.93 249.291 649.93 241.814V168H664.946V241.452C664.946 252.548 667.841 261.353 673.63 267.865C679.419 274.258 687.922 277.454 699.139 277.454C710.356 277.454 718.859 274.258 724.648 267.865C730.438 261.353 733.332 252.548 733.332 241.452V168H748.348V241.633C748.348 249.111 747.323 255.925 745.273 262.076C743.222 268.107 740.147 273.293 736.046 277.635C731.945 281.856 726.819 285.113 720.668 287.404C714.517 289.696 707.341 290.842 699.139 290.842Z" fill="#1D1B1B"/>
<path d="M815.684 290.842C805.071 290.842 795.964 289.093 788.366 285.595C780.768 281.977 774.436 277.333 769.37 271.665L778.235 260.267C780.165 262.438 782.456 264.609 785.11 266.78C787.763 268.83 790.658 270.64 793.793 272.207C797.05 273.775 800.548 275.042 804.287 276.007C808.026 276.972 812.006 277.454 816.227 277.454C821.655 277.454 826.177 276.791 829.796 275.464C833.414 274.137 836.309 272.509 838.48 270.579C840.651 268.529 842.219 266.298 843.183 263.885C844.148 261.352 844.631 258.94 844.631 256.649C844.631 252.789 843.606 249.593 841.555 247.06C839.505 244.527 836.791 242.417 833.414 240.728C830.158 238.919 826.358 237.472 822.016 236.386C817.795 235.18 813.393 233.974 808.81 232.768C804.347 231.441 799.945 229.994 795.603 228.426C791.381 226.858 787.582 224.868 784.205 222.456C780.948 219.923 778.295 216.847 776.245 213.229C774.194 209.611 773.169 205.088 773.169 199.66C773.169 194.715 774.194 190.192 776.245 186.092C778.416 181.991 781.31 178.493 784.929 175.598C788.668 172.583 793.07 170.292 798.135 168.724C803.201 167.035 808.689 166.191 814.599 166.191C823.886 166.191 832.087 167.638 839.203 170.533C846.319 173.427 852.41 177.589 857.476 183.016L848.43 194.052C843.847 188.986 838.54 185.308 832.509 183.016C826.479 180.724 820.147 179.579 813.513 179.579C806.277 179.579 800.306 181.327 795.603 184.825C791.019 188.323 788.728 192.966 788.728 198.756C788.728 202.133 789.753 204.907 791.803 207.078C793.854 209.249 796.507 211.118 799.764 212.686C803.141 214.254 806.94 215.641 811.161 216.847C815.503 217.933 819.906 219.139 824.368 220.466C828.951 221.672 833.354 223.119 837.575 224.808C841.917 226.496 845.716 228.667 848.973 231.32C852.35 233.974 855.064 237.23 857.114 241.09C859.164 244.949 860.19 249.714 860.19 255.382C860.19 259.724 859.406 264.066 857.838 268.408C856.27 272.63 853.677 276.429 850.058 279.806C846.561 283.062 841.977 285.716 836.309 287.766C830.64 289.817 823.765 290.842 815.684 290.842Z" fill="#1D1B1B"/>
<path d="M921.69 290.842C911.076 290.842 901.97 289.093 894.371 285.595C886.773 281.977 880.441 277.333 875.375 271.665L884.24 260.267C886.17 262.438 888.461 264.609 891.115 266.78C893.768 268.83 896.663 270.64 899.799 272.207C903.055 273.775 906.553 275.042 910.292 276.007C914.031 276.972 918.011 277.454 922.232 277.454C927.66 277.454 932.183 276.791 935.801 275.464C939.419 274.137 942.314 272.509 944.485 270.579C946.656 268.529 948.224 266.298 949.189 263.885C950.154 261.352 950.636 258.94 950.636 256.649C950.636 252.789 949.611 249.593 947.56 247.06C945.51 244.527 942.796 242.417 939.419 240.728C936.163 238.919 932.364 237.472 928.022 236.386C923.8 235.18 919.398 233.974 914.815 232.768C910.352 231.441 905.95 229.994 901.608 228.426C897.387 226.858 893.587 224.868 890.21 222.456C886.954 219.923 884.3 216.847 882.25 213.229C880.2 209.611 879.174 205.088 879.174 199.66C879.174 194.715 880.2 190.192 882.25 186.092C884.421 181.991 887.316 178.493 890.934 175.598C894.673 172.583 899.075 170.292 904.141 168.724C909.206 167.035 914.694 166.191 920.604 166.191C929.891 166.191 938.093 167.638 945.209 170.533C952.325 173.427 958.415 177.589 963.481 183.016L954.435 194.052C949.852 188.986 944.545 185.308 938.515 183.016C932.484 180.724 926.152 179.579 919.519 179.579C912.282 179.579 906.312 181.327 901.608 184.825C897.025 188.323 894.733 192.966 894.733 198.756C894.733 202.133 895.758 204.907 897.809 207.078C899.859 209.249 902.512 211.118 905.769 212.686C909.146 214.254 912.945 215.641 917.167 216.847C921.509 217.933 925.911 219.139 930.374 220.466C934.957 221.672 939.359 223.119 943.58 224.808C947.922 226.496 951.722 228.667 954.978 231.32C958.355 233.974 961.069 237.23 963.119 241.09C965.17 244.949 966.195 249.714 966.195 255.382C966.195 259.724 965.411 264.066 963.843 268.408C962.275 272.63 959.682 276.429 956.064 279.806C952.566 283.062 947.983 285.716 942.314 287.766C936.645 289.817 929.77 290.842 921.69 290.842Z" fill="#1D1B1B"/>
<path d="M988.617 288.671V168H1003.63V288.671H988.617Z" fill="#1D1B1B"/>
<path d="M1118.02 288.671L1107.34 261.895H1047.28L1036.61 288.671H1019.42L1067.9 168H1086.54L1135.21 288.671H1118.02ZM1077.31 183.559L1051.62 248.507H1102.82L1077.31 183.559Z" fill="#1D1B1B"/>
<path d="M539.861 460.671V340H618.922V353.388H554.877V392.285H617.655V405.672H554.877V460.671H539.861Z" fill="#1D1B1B"/>
<path d="M694.328 462.842C685.403 462.842 677.262 461.274 669.904 458.138C662.547 455.002 656.215 450.66 650.908 445.112C645.722 439.443 641.682 432.81 638.787 425.211C635.892 417.613 634.445 409.351 634.445 400.426C634.445 391.501 635.892 383.239 638.787 375.64C641.682 368.042 645.722 361.469 650.908 355.921C656.215 350.252 662.547 345.85 669.904 342.714C677.262 339.578 685.403 338.01 694.328 338.01C703.253 338.01 711.394 339.578 718.752 342.714C726.109 345.85 732.381 350.252 737.567 355.921C742.874 361.469 746.974 368.042 749.869 375.64C752.764 383.239 754.211 391.501 754.211 400.426C754.211 409.351 752.764 417.613 749.869 425.211C746.974 432.81 742.874 439.443 737.567 445.112C732.381 450.66 726.109 455.002 718.752 458.138C711.394 461.274 703.253 462.842 694.328 462.842ZM694.328 449.454C701.082 449.454 707.173 448.248 712.6 445.836C718.028 443.303 722.671 439.865 726.531 435.523C730.391 431.061 733.345 425.875 735.396 419.965C737.567 413.934 738.652 407.421 738.652 400.426C738.652 393.43 737.567 386.917 735.396 380.887C733.345 374.856 730.391 369.67 726.531 365.328C722.671 360.986 718.028 357.609 712.6 355.197C707.173 352.664 701.082 351.398 694.328 351.398C687.574 351.398 681.423 352.664 675.875 355.197C670.447 357.609 665.804 360.986 661.944 365.328C658.085 369.67 655.13 374.856 653.079 380.887C651.029 386.917 650.004 393.43 650.004 400.426C650.004 407.421 651.029 413.934 653.079 419.965C655.13 425.875 658.085 431.061 661.944 435.523C665.804 439.865 670.447 443.303 675.875 445.836C681.423 448.248 687.574 449.454 694.328 449.454Z" fill="#1D1B1B"/>
<path d="M826.876 462.842C818.674 462.842 811.498 461.696 805.347 459.404C799.196 456.992 794.07 453.675 789.969 449.454C785.868 445.233 782.793 440.107 780.742 434.076C778.692 428.046 777.667 421.291 777.667 413.814V340H792.683V413.452C792.683 424.548 795.577 433.353 801.367 439.865C807.156 446.258 815.659 449.454 826.876 449.454C838.092 449.454 846.595 446.258 852.385 439.865C858.174 433.353 861.069 424.548 861.069 413.452V340H876.085V413.633C876.085 421.111 875.059 427.925 873.009 434.076C870.959 440.107 867.883 445.293 863.782 449.635C859.682 453.856 854.556 457.113 848.405 459.404C842.253 461.696 835.077 462.842 826.876 462.842Z" fill="#1D1B1B"/>
<path d="M989.735 460.671L919.359 364.424V460.671H904.343V340H919.721L989.192 434.257V340H1004.21V460.671H989.735Z" fill="#1D1B1B"/>
<path d="M1032.43 460.671V340H1073.68C1083.09 340 1091.59 341.568 1099.19 344.704C1106.79 347.719 1113.24 351.94 1118.55 357.368C1123.98 362.795 1128.14 369.188 1131.03 376.545C1134.05 383.902 1135.55 391.862 1135.55 400.426C1135.55 408.989 1134.05 416.949 1131.03 424.307C1128.14 431.664 1123.98 438.056 1118.55 443.484C1113.24 448.791 1106.79 453.012 1099.19 456.148C1091.59 459.163 1083.09 460.671 1073.68 460.671H1032.43ZM1073.68 447.283C1081.04 447.283 1087.55 446.077 1093.22 443.665C1099.01 441.132 1103.89 437.755 1107.87 433.533C1111.85 429.312 1114.87 424.367 1116.92 418.698C1118.97 413.03 1120 406.939 1120 400.426C1120 393.913 1118.97 387.822 1116.92 382.153C1114.87 376.364 1111.85 371.359 1107.87 367.137C1104.01 362.916 1099.19 359.599 1093.4 357.187C1087.73 354.654 1081.16 353.388 1073.68 353.388H1047.45V447.283H1073.68Z" fill="#1D1B1B"/>
<path d="M1238.51 460.671L1227.84 433.895H1167.77L1157.1 460.671H1139.91L1188.4 340H1207.03L1255.7 460.671H1238.51ZM1197.81 355.559L1172.11 420.507H1223.31L1197.81 355.559Z" fill="#1D1B1B"/>
<path d="M1289.14 460.671V353.388H1250.96V340H1342.51V353.388H1304.15V460.671H1289.14Z" fill="#1D1B1B"/>
<path d="M1362.46 460.671V340H1377.48V460.671H1362.46Z" fill="#1D1B1B"/>
<path d="M1460.75 462.842C1451.82 462.842 1443.68 461.274 1436.32 458.138C1428.97 455.002 1422.63 450.66 1417.33 445.112C1412.14 439.443 1408.1 432.81 1405.21 425.211C1402.31 417.613 1400.86 409.351 1400.86 400.426C1400.86 391.501 1402.31 383.239 1405.21 375.64C1408.1 368.042 1412.14 361.469 1417.33 355.921C1422.63 350.252 1428.97 345.85 1436.32 342.714C1443.68 339.578 1451.82 338.01 1460.75 338.01C1469.67 338.01 1477.81 339.578 1485.17 342.714C1492.53 345.85 1498.8 350.252 1503.99 355.921C1509.29 361.469 1513.39 368.042 1516.29 375.64C1519.18 383.239 1520.63 391.501 1520.63 400.426C1520.63 409.351 1519.18 417.613 1516.29 425.211C1513.39 432.81 1509.29 439.443 1503.99 445.112C1498.8 450.66 1492.53 455.002 1485.17 458.138C1477.81 461.274 1469.67 462.842 1460.75 462.842ZM1460.75 449.454C1467.5 449.454 1473.59 448.248 1479.02 445.836C1484.45 443.303 1489.09 439.865 1492.95 435.523C1496.81 431.061 1499.76 425.875 1501.81 419.965C1503.99 413.934 1505.07 407.421 1505.07 400.426C1505.07 393.43 1503.99 386.917 1501.81 380.887C1499.76 374.856 1496.81 369.67 1492.95 365.328C1489.09 360.986 1484.45 357.609 1479.02 355.197C1473.59 352.664 1467.5 351.398 1460.75 351.398C1453.99 351.398 1447.84 352.664 1442.29 355.197C1436.87 357.609 1432.22 360.986 1428.36 365.328C1424.5 369.67 1421.55 374.856 1419.5 380.887C1417.45 386.917 1416.42 393.43 1416.42 400.426C1416.42 407.421 1417.45 413.934 1419.5 419.965C1421.55 425.875 1424.5 431.061 1428.36 435.523C1432.22 439.865 1436.87 443.303 1442.29 445.836C1447.84 448.248 1453.99 449.454 1460.75 449.454Z" fill="#1D1B1B"/>
<path d="M1629.48 460.671L1559.1 364.424V460.671H1544.08V340H1559.46L1628.93 434.257V340H1643.95V460.671H1629.48Z" fill="#1D1B1B"/>
<path d="M229.952 2.30664H115.976V116.283H229.952V2.30664Z" stroke="#1D1B1B" stroke-width="3" mask="url(#path-1-outside-1_202_92)"/>
<path d="M229.952 116.282H115.976V230.259H229.952V116.282Z" stroke="#1D1B1B" stroke-width="3" mask="url(#path-1-outside-1_202_92)"/>
<path d="M343.928 116.282H229.951V230.259H343.928V116.282Z" stroke="#1D1B1B" stroke-width="3" mask="url(#path-1-outside-1_202_92)"/>
<path d="M229.952 230.262H115.976V344.239H229.952V230.262Z" stroke="#1D1B1B" stroke-width="3" mask="url(#path-1-outside-1_202_92)"/>
<path d="M115.977 2.30664H2V116.283H115.977V2.30664Z" stroke="#1D1B1B" stroke-width="3" mask="url(#path-1-outside-1_202_92)"/>
<path d="M343.928 2.30664H229.951V116.283H343.928V2.30664Z" stroke="#1D1B1B" stroke-width="3" mask="url(#path-1-outside-1_202_92)"/>
<path d="M115.977 116.282H2V230.259H115.977V116.282Z" stroke="#1D1B1B" stroke-width="3" mask="url(#path-1-outside-1_202_92)"/>
<path d="M115.977 230.262H2V344.239H115.977V230.262Z" stroke="#1D1B1B" stroke-width="3" mask="url(#path-1-outside-1_202_92)"/>
<path d="M115.977 344.237H2V458.214H115.977V344.237Z" stroke="#1D1B1B" stroke-width="3" mask="url(#path-1-outside-1_202_92)"/>
<path d="M457.907 2.30664H343.93V116.283H457.907V2.30664Z" stroke="#1D1B1B" stroke-width="3" mask="url(#path-1-outside-1_202_92)"/>
<path d="M539.861 122.671V2H618.922V15.3878H554.877V54.2846H617.655V67.6724H554.877V122.671H539.861Z" stroke="#1D1B1B" stroke-width="3" mask="url(#path-1-outside-1_202_92)"/>
<path d="M709.163 122.671L678.407 74.7281H654.346V122.671H639.33V2H687.815C693.363 2 698.429 2.84427 703.012 4.53282C707.595 6.22137 711.575 8.69388 714.952 11.9504C718.329 15.0862 720.923 18.8855 722.732 23.3481C724.662 27.8106 725.626 32.816 725.626 38.3641C725.626 43.7915 724.782 48.6159 723.094 52.8373C721.405 57.0587 719.113 60.6167 716.219 63.5113C713.324 66.406 709.947 68.6976 706.088 70.3861C702.349 72.0747 698.429 73.0999 694.328 73.4617L726.893 122.671H709.163ZM686.006 61.5213C693.243 61.5213 699.032 59.4106 703.374 55.1892C707.836 50.8472 710.068 45.2389 710.068 38.3641C710.068 31.4893 707.836 25.9412 703.374 21.7198C699.032 17.4984 693.243 15.3878 686.006 15.3878H654.346V61.5213H686.006Z" stroke="#1D1B1B" stroke-width="3" mask="url(#path-1-outside-1_202_92)"/>
<path d="M749.398 122.671V2H828.459V15.3878H764.414V54.2846H827.192V67.6724H764.414V109.283H828.459V122.671H749.398Z" stroke="#1D1B1B" stroke-width="3" mask="url(#path-1-outside-1_202_92)"/>
<path d="M852.4 122.671V2H931.46V15.3878H867.416V54.2846H930.194V67.6724H867.416V109.283H931.46V122.671H852.4Z" stroke="#1D1B1B" stroke-width="3" mask="url(#path-1-outside-1_202_92)"/>
<path d="M609.695 288.671L578.939 240.728H554.877V288.671H539.861V168H588.347C593.895 168 598.96 168.844 603.544 170.533C608.127 172.221 612.107 174.694 615.484 177.95C618.861 181.086 621.454 184.885 623.263 189.348C625.193 193.811 626.158 198.816 626.158 204.364C626.158 209.792 625.314 214.616 623.625 218.837C621.937 223.059 619.645 226.617 616.75 229.511C613.856 232.406 610.479 234.698 606.619 236.386C602.88 238.075 598.96 239.1 594.86 239.462L627.425 288.671H609.695ZM586.538 227.521C593.774 227.521 599.564 225.411 603.906 221.189C608.368 216.847 610.599 211.239 610.599 204.364C610.599 197.489 608.368 191.941 603.906 187.72C599.564 183.498 593.774 181.388 586.538 181.388H554.877V227.521H586.538Z" stroke="#1D1B1B" stroke-width="3" mask="url(#path-1-outside-1_202_92)"/>
<path d="M699.139 290.842C690.938 290.842 683.761 289.696 677.61 287.404C671.459 284.992 666.333 281.675 662.232 277.454C658.132 273.233 655.056 268.107 653.006 262.076C650.955 256.046 649.93 249.291 649.93 241.814V168H664.946V241.452C664.946 252.548 667.841 261.353 673.63 267.865C679.419 274.258 687.922 277.454 699.139 277.454C710.356 277.454 718.859 274.258 724.648 267.865C730.438 261.353 733.332 252.548 733.332 241.452V168H748.348V241.633C748.348 249.111 747.323 255.925 745.273 262.076C743.222 268.107 740.147 273.293 736.046 277.635C731.945 281.856 726.819 285.113 720.668 287.404C714.517 289.696 707.341 290.842 699.139 290.842Z" stroke="#1D1B1B" stroke-width="3" mask="url(#path-1-outside-1_202_92)"/>
<path d="M815.684 290.842C805.071 290.842 795.964 289.093 788.366 285.595C780.768 281.977 774.436 277.333 769.37 271.665L778.235 260.267C780.165 262.438 782.456 264.609 785.11 266.78C787.763 268.83 790.658 270.64 793.793 272.207C797.05 273.775 800.548 275.042 804.287 276.007C808.026 276.972 812.006 277.454 816.227 277.454C821.655 277.454 826.177 276.791 829.796 275.464C833.414 274.137 836.309 272.509 838.48 270.579C840.651 268.529 842.219 266.298 843.183 263.885C844.148 261.352 844.631 258.94 844.631 256.649C844.631 252.789 843.606 249.593 841.555 247.06C839.505 244.527 836.791 242.417 833.414 240.728C830.158 238.919 826.358 237.472 822.016 236.386C817.795 235.18 813.393 233.974 808.81 232.768C804.347 231.441 799.945 229.994 795.603 228.426C791.381 226.858 787.582 224.868 784.205 222.456C780.948 219.923 778.295 216.847 776.245 213.229C774.194 209.611 773.169 205.088 773.169 199.66C773.169 194.715 774.194 190.192 776.245 186.092C778.416 181.991 781.31 178.493 784.929 175.598C788.668 172.583 793.07 170.292 798.135 168.724C803.201 167.035 808.689 166.191 814.599 166.191C823.886 166.191 832.087 167.638 839.203 170.533C846.319 173.427 852.41 177.589 857.476 183.016L848.43 194.052C843.847 188.986 838.54 185.308 832.509 183.016C826.479 180.724 820.147 179.579 813.513 179.579C806.277 179.579 800.306 181.327 795.603 184.825C791.019 188.323 788.728 192.966 788.728 198.756C788.728 202.133 789.753 204.907 791.803 207.078C793.854 209.249 796.507 211.118 799.764 212.686C803.141 214.254 806.94 215.641 811.161 216.847C815.503 217.933 819.906 219.139 824.368 220.466C828.951 221.672 833.354 223.119 837.575 224.808C841.917 226.496 845.716 228.667 848.973 231.32C852.35 233.974 855.064 237.23 857.114 241.09C859.164 244.949 860.19 249.714 860.19 255.382C860.19 259.724 859.406 264.066 857.838 268.408C856.27 272.63 853.677 276.429 850.058 279.806C846.561 283.062 841.977 285.716 836.309 287.766C830.64 289.817 823.765 290.842 815.684 290.842Z" stroke="#1D1B1B" stroke-width="3" mask="url(#path-1-outside-1_202_92)"/>
<path d="M921.69 290.842C911.076 290.842 901.97 289.093 894.371 285.595C886.773 281.977 880.441 277.333 875.375 271.665L884.24 260.267C886.17 262.438 888.461 264.609 891.115 266.78C893.768 268.83 896.663 270.64 899.799 272.207C903.055 273.775 906.553 275.042 910.292 276.007C914.031 276.972 918.011 277.454 922.232 277.454C927.66 277.454 932.183 276.791 935.801 275.464C939.419 274.137 942.314 272.509 944.485 270.579C946.656 268.529 948.224 266.298 949.189 263.885C950.154 261.352 950.636 258.94 950.636 256.649C950.636 252.789 949.611 249.593 947.56 247.06C945.51 244.527 942.796 242.417 939.419 240.728C936.163 238.919 932.364 237.472 928.022 236.386C923.8 235.18 919.398 233.974 914.815 232.768C910.352 231.441 905.95 229.994 901.608 228.426C897.387 226.858 893.587 224.868 890.21 222.456C886.954 219.923 884.3 216.847 882.25 213.229C880.2 209.611 879.174 205.088 879.174 199.66C879.174 194.715 880.2 190.192 882.25 186.092C884.421 181.991 887.316 178.493 890.934 175.598C894.673 172.583 899.075 170.292 904.141 168.724C909.206 167.035 914.694 166.191 920.604 166.191C929.891 166.191 938.093 167.638 945.209 170.533C952.325 173.427 958.415 177.589 963.481 183.016L954.435 194.052C949.852 188.986 944.545 185.308 938.515 183.016C932.484 180.724 926.152 179.579 919.519 179.579C912.282 179.579 906.312 181.327 901.608 184.825C897.025 188.323 894.733 192.966 894.733 198.756C894.733 202.133 895.758 204.907 897.809 207.078C899.859 209.249 902.512 211.118 905.769 212.686C909.146 214.254 912.945 215.641 917.167 216.847C921.509 217.933 925.911 219.139 930.374 220.466C934.957 221.672 939.359 223.119 943.58 224.808C947.922 226.496 951.722 228.667 954.978 231.32C958.355 233.974 961.069 237.23 963.119 241.09C965.17 244.949 966.195 249.714 966.195 255.382C966.195 259.724 965.411 264.066 963.843 268.408C962.275 272.63 959.682 276.429 956.064 279.806C952.566 283.062 947.983 285.716 942.314 287.766C936.645 289.817 929.77 290.842 921.69 290.842Z" stroke="#1D1B1B" stroke-width="3" mask="url(#path-1-outside-1_202_92)"/>
<path d="M988.617 288.671V168H1003.63V288.671H988.617Z" stroke="#1D1B1B" stroke-width="3" mask="url(#path-1-outside-1_202_92)"/>
<path d="M1118.02 288.671L1107.34 261.895H1047.28L1036.61 288.671H1019.42L1067.9 168H1086.54L1135.21 288.671H1118.02ZM1077.31 183.559L1051.62 248.507H1102.82L1077.31 183.559Z" stroke="#1D1B1B" stroke-width="3" mask="url(#path-1-outside-1_202_92)"/>
<path d="M539.861 460.671V340H618.922V353.388H554.877V392.285H617.655V405.672H554.877V460.671H539.861Z" stroke="#1D1B1B" stroke-width="3" mask="url(#path-1-outside-1_202_92)"/>
<path d="M694.328 462.842C685.403 462.842 677.262 461.274 669.904 458.138C662.547 455.002 656.215 450.66 650.908 445.112C645.722 439.443 641.682 432.81 638.787 425.211C635.892 417.613 634.445 409.351 634.445 400.426C634.445 391.501 635.892 383.239 638.787 375.64C641.682 368.042 645.722 361.469 650.908 355.921C656.215 350.252 662.547 345.85 669.904 342.714C677.262 339.578 685.403 338.01 694.328 338.01C703.253 338.01 711.394 339.578 718.752 342.714C726.109 345.85 732.381 350.252 737.567 355.921C742.874 361.469 746.974 368.042 749.869 375.64C752.764 383.239 754.211 391.501 754.211 400.426C754.211 409.351 752.764 417.613 749.869 425.211C746.974 432.81 742.874 439.443 737.567 445.112C732.381 450.66 726.109 455.002 718.752 458.138C711.394 461.274 703.253 462.842 694.328 462.842ZM694.328 449.454C701.082 449.454 707.173 448.248 712.6 445.836C718.028 443.303 722.671 439.865 726.531 435.523C730.391 431.061 733.345 425.875 735.396 419.965C737.567 413.934 738.652 407.421 738.652 400.426C738.652 393.43 737.567 386.917 735.396 380.887C733.345 374.856 730.391 369.67 726.531 365.328C722.671 360.986 718.028 357.609 712.6 355.197C707.173 352.664 701.082 351.398 694.328 351.398C687.574 351.398 681.423 352.664 675.875 355.197C670.447 357.609 665.804 360.986 661.944 365.328C658.085 369.67 655.13 374.856 653.079 380.887C651.029 386.917 650.004 393.43 650.004 400.426C650.004 407.421 651.029 413.934 653.079 419.965C655.13 425.875 658.085 431.061 661.944 435.523C665.804 439.865 670.447 443.303 675.875 445.836C681.423 448.248 687.574 449.454 694.328 449.454Z" stroke="#1D1B1B" stroke-width="3" mask="url(#path-1-outside-1_202_92)"/>
<path d="M826.876 462.842C818.674 462.842 811.498 461.696 805.347 459.404C799.196 456.992 794.07 453.675 789.969 449.454C785.868 445.233 782.793 440.107 780.742 434.076C778.692 428.046 777.667 421.291 777.667 413.814V340H792.683V413.452C792.683 424.548 795.577 433.353 801.367 439.865C807.156 446.258 815.659 449.454 826.876 449.454C838.092 449.454 846.595 446.258 852.385 439.865C858.174 433.353 861.069 424.548 861.069 413.452V340H876.085V413.633C876.085 421.111 875.059 427.925 873.009 434.076C870.959 440.107 867.883 445.293 863.782 449.635C859.682 453.856 854.556 457.113 848.405 459.404C842.253 461.696 835.077 462.842 826.876 462.842Z" stroke="#1D1B1B" stroke-width="3" mask="url(#path-1-outside-1_202_92)"/>
<path d="M989.735 460.671L919.359 364.424V460.671H904.343V340H919.721L989.192 434.257V340H1004.21V460.671H989.735Z" stroke="#1D1B1B" stroke-width="3" mask="url(#path-1-outside-1_202_92)"/>
<path d="M1032.43 460.671V340H1073.68C1083.09 340 1091.59 341.568 1099.19 344.704C1106.79 347.719 1113.24 351.94 1118.55 357.368C1123.98 362.795 1128.14 369.188 1131.03 376.545C1134.05 383.902 1135.55 391.862 1135.55 400.426C1135.55 408.989 1134.05 416.949 1131.03 424.307C1128.14 431.664 1123.98 438.056 1118.55 443.484C1113.24 448.791 1106.79 453.012 1099.19 456.148C1091.59 459.163 1083.09 460.671 1073.68 460.671H1032.43ZM1073.68 447.283C1081.04 447.283 1087.55 446.077 1093.22 443.665C1099.01 441.132 1103.89 437.755 1107.87 433.533C1111.85 429.312 1114.87 424.367 1116.92 418.698C1118.97 413.03 1120 406.939 1120 400.426C1120 393.913 1118.97 387.822 1116.92 382.153C1114.87 376.364 1111.85 371.359 1107.87 367.137C1104.01 362.916 1099.19 359.599 1093.4 357.187C1087.73 354.654 1081.16 353.388 1073.68 353.388H1047.45V447.283H1073.68Z" stroke="#1D1B1B" stroke-width="3" mask="url(#path-1-outside-1_202_92)"/>
<path d="M1238.51 460.671L1227.84 433.895H1167.77L1157.1 460.671H1139.91L1188.4 340H1207.03L1255.7 460.671H1238.51ZM1197.81 355.559L1172.11 420.507H1223.31L1197.81 355.559Z" stroke="#1D1B1B" stroke-width="3" mask="url(#path-1-outside-1_202_92)"/>
<path d="M1289.14 460.671V353.388H1250.96V340H1342.51V353.388H1304.15V460.671H1289.14Z" stroke="#1D1B1B" stroke-width="3" mask="url(#path-1-outside-1_202_92)"/>
<path d="M1362.46 460.671V340H1377.48V460.671H1362.46Z" stroke="#1D1B1B" stroke-width="3" mask="url(#path-1-outside-1_202_92)"/>
<path d="M1460.75 462.842C1451.82 462.842 1443.68 461.274 1436.32 458.138C1428.97 455.002 1422.63 450.66 1417.33 445.112C1412.14 439.443 1408.1 432.81 1405.21 425.211C1402.31 417.613 1400.86 409.351 1400.86 400.426C1400.86 391.501 1402.31 383.239 1405.21 375.64C1408.1 368.042 1412.14 361.469 1417.33 355.921C1422.63 350.252 1428.97 345.85 1436.32 342.714C1443.68 339.578 1451.82 338.01 1460.75 338.01C1469.67 338.01 1477.81 339.578 1485.17 342.714C1492.53 345.85 1498.8 350.252 1503.99 355.921C1509.29 361.469 1513.39 368.042 1516.29 375.64C1519.18 383.239 1520.63 391.501 1520.63 400.426C1520.63 409.351 1519.18 417.613 1516.29 425.211C1513.39 432.81 1509.29 439.443 1503.99 445.112C1498.8 450.66 1492.53 455.002 1485.17 458.138C1477.81 461.274 1469.67 462.842 1460.75 462.842ZM1460.75 449.454C1467.5 449.454 1473.59 448.248 1479.02 445.836C1484.45 443.303 1489.09 439.865 1492.95 435.523C1496.81 431.061 1499.76 425.875 1501.81 419.965C1503.99 413.934 1505.07 407.421 1505.07 400.426C1505.07 393.43 1503.99 386.917 1501.81 380.887C1499.76 374.856 1496.81 369.67 1492.95 365.328C1489.09 360.986 1484.45 357.609 1479.02 355.197C1473.59 352.664 1467.5 351.398 1460.75 351.398C1453.99 351.398 1447.84 352.664 1442.29 355.197C1436.87 357.609 1432.22 360.986 1428.36 365.328C1424.5 369.67 1421.55 374.856 1419.5 380.887C1417.45 386.917 1416.42 393.43 1416.42 400.426C1416.42 407.421 1417.45 413.934 1419.5 419.965C1421.55 425.875 1424.5 431.061 1428.36 435.523C1432.22 439.865 1436.87 443.303 1442.29 445.836C1447.84 448.248 1453.99 449.454 1460.75 449.454Z" stroke="#1D1B1B" stroke-width="3" mask="url(#path-1-outside-1_202_92)"/>
<path d="M1629.48 460.671L1559.1 364.424V460.671H1544.08V340H1559.46L1628.93 434.257V340H1643.95V460.671H1629.48Z" stroke="#1D1B1B" stroke-width="3" mask="url(#path-1-outside-1_202_92)"/>
</svg>
