<svg width="2600" height="400" viewBox="280 320 2600 400" fill="none" xmlns="http://www.w3.org/2000/svg">
<path d="M598.41 702.831H509.316L437.712 573.289H380.867V702.831H303.251V338.255H473.787C549.763 338.255 596.223 387.995 596.223 455.772C596.223 520.27 555.776 554.705 516.421 563.997L598.41 702.831ZM462.309 504.965C493.464 504.965 516.968 486.381 516.968 455.772C516.968 425.163 493.464 406.579 462.309 406.579H380.867V504.965H462.309ZM912.469 702.831H654.478V338.255H912.469V406.579H732.094V483.648H908.643V551.972H732.094V634.507H912.469V702.831ZM1050.76 702.831H973.145V338.255H1231.14V406.579H1050.76V483.648H1227.31V551.972H1050.76V702.831ZM1458.13 709.39C1348.26 709.39 1267.92 630.681 1267.92 520.816C1267.92 410.952 1348.26 332.242 1458.13 332.242C1568.54 332.242 1648.89 410.952 1648.89 520.816C1648.89 630.681 1568.54 709.39 1458.13 709.39ZM1458.13 640.52C1525.36 640.52 1569.09 588.594 1569.09 520.816C1569.09 452.492 1525.36 401.113 1458.13 401.113C1390.9 401.113 1347.72 452.492 1347.72 520.816C1347.72 588.594 1390.9 640.52 1458.13 640.52ZM1998.52 702.831H1909.42L1837.82 573.289H1780.97V702.831H1703.36V338.255H1873.89C1949.87 338.255 1996.33 387.995 1996.33 455.772C1996.33 520.27 1955.88 554.705 1916.53 563.997L1998.52 702.831ZM1862.41 504.965C1893.57 504.965 1917.07 486.381 1917.07 455.772C1917.07 425.163 1893.57 406.579 1862.41 406.579H1780.97V504.965H1862.41ZM2219.11 709.39C2108.15 709.39 2054.58 647.079 2054.58 557.438V338.255H2133.29V554.705C2133.29 605.538 2162.81 640.52 2219.11 640.52C2275.41 640.52 2304.38 605.538 2304.38 554.705V338.255H2383.63V556.891C2383.63 647.625 2330.07 709.39 2219.11 709.39ZM2850.64 702.831H2772.47V447.573L2669.72 702.831H2635.83L2533.07 447.573V702.831H2455.45V338.255H2564.22L2652.77 558.531L2741.32 338.255H2850.64V702.831Z" fill="#000014"/>
</svg>
